<svg width="170" height="160" viewBox="0 0 170 160" fill="none" xmlns="http://www.w3.org/2000/svg">
<path d="M89.9374 25.7607V134.664C89.9374 138.098 90.6108 141.307 91.9268 144.317C93.2427 147.332 95.0316 150.112 97.463 152.468C99.8945 154.824 102.763 156.756 106.104 158.068C109.209 159.341 112.519 160 116.061 160C123.15 160 129.802 157.215 134.325 152.468C136.315 150.766 137.867 148.605 138.982 146.448C140.098 144.517 140.972 142.161 141.414 139.999C145.393 138.297 149.176 136.136 152.481 133.55C156.028 130.965 159.133 127.755 161.565 124.092C164.232 120.423 166.422 116.365 167.774 111.848C169.09 107.755 170 103.272 170 98.5257C170 96.8236 169.764 95.0866 169.563 93.1549C169.327 91.4528 169.126 89.7208 168.684 88.0187C168.247 86.5113 167.81 85.0039 167.132 83.5015C166.695 81.9941 166.021 80.7163 165.579 79.4085C166.695 76.6283 167.574 73.8131 168.247 71.0279C168.921 68.0181 169.126 65.0083 169.126 61.7988C169.126 57.2815 168.448 52.7643 167.132 48.7063C165.816 44.4187 163.826 40.3257 161.158 36.6919C158.727 33.2528 155.859 30.0484 152.317 27.2332C149.207 24.6476 145.665 22.5163 141.681 20.7843C141.244 18.4283 140.365 16.0724 139.25 13.9111C138.139 11.3255 136.381 9.1942 134.392 7.26252C131.961 5.10622 129.092 3.17454 125.987 1.89674C122.816 0.653875 119.505 0 115.964 0C112.417 0 109.111 0.653876 106.001 1.92669C102.696 3.20449 99.7917 5.13617 97.3602 7.29746C94.9339 9.65341 93.145 12.4386 91.8291 15.6781C90.6108 19.1122 89.9374 22.3216 89.9374 25.7607ZM95.9106 134.664V25.7607C95.9106 23.1752 96.584 20.6196 97.463 18.2287C98.5785 15.8727 100.131 13.7114 101.884 12.0094C103.642 10.3073 105.868 8.80487 108.299 7.72173C110.731 6.87319 113.398 6.44392 116.061 6.44392C118.729 6.44392 121.361 6.87319 123.592 7.72173C126.018 8.80487 128.249 10.3073 130.239 12.0094C131.997 13.7114 133.549 15.8727 134.459 18.2287C135.574 20.5896 136.011 23.1752 136.011 25.7607C136.011 27.4628 135.775 29.1948 135.338 30.7022C134.896 32.4043 134.222 33.9117 133.343 35.4141C132.47 36.9215 131.59 38.1993 130.239 39.2775C129.123 40.3556 128.013 41.4388 126.697 42.2873C123.386 42.5169 120.282 43.1409 117.614 44.4486C114.509 45.7264 111.841 47.4634 109.651 49.5898C107.22 51.9457 105.225 54.7259 103.878 57.9704C102.763 60.7506 101.884 64.1897 101.884 67.6238C101.884 69.3258 102.12 71.2925 102.562 72.9945C102.999 74.9262 103.673 76.6582 104.552 78.3603C105.225 80.0624 106.31 81.5698 107.42 83.0772C108.536 84.5796 109.852 85.8574 111.404 86.9356C112.077 87.5945 112.956 87.7891 113.63 87.7891C114.308 87.5595 115.187 87.3648 115.624 86.706C116.298 86.0521 116.503 85.2036 116.503 84.5497C116.267 83.6961 116.061 83.0423 115.388 82.618V82.4882C114.072 81.6347 113.162 80.5565 112.283 79.4734C111.404 78.3953 110.525 77.1175 110.052 75.8097C109.379 74.5319 108.942 73.2241 108.5 71.7167C108.263 70.4389 108.063 68.9365 108.063 67.6238C108.063 64.8435 108.736 62.4876 109.615 60.0967C110.731 57.7408 112.047 55.5795 114.036 53.8774C115.794 51.9457 118.02 50.6679 120.451 49.5898C122.883 48.7362 125.309 48.0824 128.213 48.0824C129.529 48.0824 130.881 48.312 132.197 48.5066C133.513 48.7362 134.629 49.1655 135.975 49.7844C137.296 50.2087 138.407 50.8676 139.522 51.4865C140.638 52.34 141.748 53.1886 142.627 54.0721C143.064 54.7259 143.943 54.9256 144.853 54.9256C145.531 54.9256 146.405 54.696 146.847 54.2717C147.521 53.6129 147.963 52.7643 147.963 52.1104C147.963 51.2569 147.521 50.603 147.084 49.9492C145.768 48.6713 144.416 47.5932 143.1 46.7397C141.548 45.6615 139.995 44.808 138.443 44.1541C137.564 43.7298 136.685 43.5002 135.775 43.3056C135.538 43.076 135.338 43.076 135.101 43.076C135.538 42.6517 135.975 41.9928 136.417 41.5686C137.296 40.4904 137.97 39.4073 138.643 38.3591C139.759 36.4324 140.638 34.5007 141.311 32.569C141.748 31.0616 141.985 29.5542 141.985 28.0518C144.652 29.3246 147.084 31.0616 149.31 32.7637C151.978 35.1196 154.173 37.4756 156.162 40.2907C158.393 43.5002 160.146 47.1689 161.462 50.8326C162.577 54.4963 163.014 58.3597 163.014 62.2231C163.014 65.0083 162.778 67.8234 162.135 70.6036C161.462 73.3839 160.583 75.9694 159.472 78.56C158.794 79.8328 158.357 80.7163 157.714 81.7645C157.041 82.8476 156.398 83.6962 155.725 84.7793C153.967 87.3648 151.741 89.4912 149.31 91.6525C147.757 92.9253 145.768 94.238 144.01 95.5158C144.246 94.6623 144.452 93.8138 144.452 93.1549C144.889 91.2232 145.125 89.4912 145.125 87.7891C145.125 86.5113 144.889 85.4332 144.889 84.1204C144.652 82.8476 144.452 81.7645 144.01 80.4567C143.773 79.3736 143.336 78.1008 142.9 77.0176C142.457 75.9395 141.784 74.8613 141.141 73.8131C140.705 73.1543 140.026 72.5353 139.389 72.3057C138.71 72.0761 137.836 72.3057 136.957 72.73H137.194C136.315 73.1543 135.878 73.8131 135.641 74.4321C135.405 75.2856 135.405 75.9395 135.878 76.788C136.551 77.4469 136.988 78.2954 137.194 79.3736C137.631 80.2271 137.867 81.0806 138.309 81.9641C138.54 83.0423 138.746 83.8908 138.746 84.7443C138.982 85.8225 138.982 86.676 138.982 87.7542C138.982 89.9155 138.746 91.8471 138.103 93.9735C137.43 95.9052 136.551 97.6422 135.672 99.3443C135.235 99.5739 134.999 99.7685 134.798 99.9981C134.798 100.228 134.562 100.652 134.356 100.847C134.12 101.276 133.919 101.7 133.482 101.93C133.246 102.354 132.804 102.778 132.367 103.208C130.372 105.364 127.709 106.871 125.042 107.92C122.374 108.998 119.505 109.622 116.4 109.622C115.727 109.622 115.285 109.622 114.848 109.622C114.406 109.622 113.969 109.392 113.296 109.392C112.854 109.392 112.417 109.392 111.98 109.162C111.538 109.162 111.101 108.933 110.427 108.933C109.749 108.703 108.875 108.703 108.196 109.162C107.523 109.587 106.88 110.246 106.644 110.864C106.407 111.718 106.644 112.567 107.086 113.22C107.523 113.879 108.196 114.304 108.839 114.498C109.512 114.728 110.155 114.922 110.592 114.922C111.27 115.152 111.913 115.152 112.586 115.352C113.26 115.352 113.902 115.352 114.339 115.352C115.018 115.581 115.655 115.581 116.334 115.581C120.112 115.581 123.859 114.728 127.406 113.42C130.712 111.913 134.053 109.981 136.721 107.395C137.158 106.742 137.836 106.118 138.273 105.693C138.71 105.039 139.152 104.615 139.589 103.991C143.809 102.484 147.793 100.328 151.335 97.772C154.882 94.9917 158.187 91.7473 160.855 88.1136C161.092 87.6893 161.529 87.0354 161.971 86.6111V87.0354C162.408 87.8889 162.644 88.7375 162.844 89.8156C163.287 91.0934 163.523 92.6008 163.723 94.3329C163.723 95.8403 163.96 97.3477 163.96 98.8501C163.96 102.943 163.287 106.806 162.207 110.44C160.886 114.304 159.097 117.738 156.907 120.982C154.676 123.762 152.481 126.348 149.582 128.704C147.351 130.406 144.925 132.143 142.257 133.421C142.257 132.762 142.02 132.143 142.02 131.489C141.784 130.406 141.578 129.328 141.342 128.28C141.111 127.201 140.669 126.118 140.232 125.07C139.79 124.221 139.353 123.138 138.679 122.29C138.237 121.436 137.564 121.012 136.921 120.782C136.047 120.553 135.168 120.782 134.495 121.012C133.816 121.436 133.379 122.095 133.174 122.944C132.937 123.598 132.937 124.451 133.41 125.105C133.852 125.954 134.289 126.612 134.526 127.461C134.963 128.314 135.199 128.968 135.405 129.817C135.641 130.67 135.842 131.519 135.842 132.402C136.078 133.256 136.078 134.105 136.078 134.988C136.078 137.574 135.641 140.129 134.526 142.29C133.647 144.646 132.094 146.808 130.305 148.739C128.316 150.441 126.085 151.944 123.659 152.827C121.428 153.91 118.796 154.335 116.128 154.335C113.465 154.335 110.828 153.91 108.366 152.827C105.935 151.979 103.709 150.471 101.951 148.739C100.198 146.808 98.6453 144.646 97.5299 142.29C96.584 139.835 95.9106 137.249 95.9106 134.664Z" fill="#0067f4"/>
<path d="M80.0677 25.7607V134.664C80.0677 138.098 79.1887 141.307 78.0732 144.317C76.7573 147.332 74.7679 150.112 72.3056 152.468C69.8742 154.824 67.0058 156.756 63.901 158.068C60.791 159.341 57.2493 160 53.7075 160C46.6188 160 39.967 157.215 35.4434 152.468C33.6905 150.766 31.9017 148.605 30.7862 146.448C29.6707 144.517 28.7968 142.161 28.3548 139.999C24.3709 138.297 20.5927 136.136 17.2822 133.55C13.7404 130.965 10.6356 127.755 8.20417 124.092C5.53627 120.423 3.3413 116.365 1.9945 111.848C0.67854 107.82 0 103.302 0 98.5905C0 96.8885 -6.61813e-07 95.1515 0.236461 93.2198C0.472923 91.5177 0.67854 89.7857 1.11548 88.0836C1.55242 86.5762 1.9945 85.0738 2.6679 83.5664C3.10484 82.059 3.78337 80.7812 4.42593 79.4734C3.10484 76.6932 2.19497 73.878 1.55242 71.0928C0.879018 68.083 0.67854 65.0732 0.67854 61.8637C0.67854 57.3464 1.35194 52.8292 2.6679 48.7712C3.98385 44.4835 5.97835 40.3906 8.64111 36.7568C11.0725 33.3227 14.1774 30.1132 17.4878 27.2981C20.5927 24.7125 24.1344 22.5862 28.1183 20.8492C28.5604 18.4932 29.4342 16.1373 30.5497 13.976C31.8657 11.3904 33.4181 9.25909 35.4126 7.3324C37.8389 5.17111 40.7073 3.23943 43.8172 1.96163C46.9221 0.683825 50.2942 0 53.8051 0C57.3521 0 60.8938 0.653876 63.9987 1.92669C67.1035 3.20449 69.977 5.13617 72.4033 7.29746C74.8347 9.65341 76.8241 12.4386 78.176 15.6781C79.1887 19.1122 80.0677 22.3216 80.0677 25.7607ZM73.8581 134.664V25.7607C73.8581 23.1752 73.1795 20.6196 72.3056 18.2287C71.1902 15.8727 69.8742 13.7114 67.8797 12.0094C66.1268 10.3073 63.901 8.80487 61.4696 7.72173C59.0381 6.87319 56.6067 6.44392 53.7075 6.44392C51.0396 6.44392 48.4077 6.87319 46.1767 7.72173C43.7453 8.80487 41.5195 10.3073 39.5301 12.0094C37.7721 13.7114 36.2196 15.8727 35.3098 18.2287C34.1943 20.5896 33.7574 23.1752 33.7574 25.7607C33.7574 27.4628 33.9938 29.1948 34.4308 30.7022C34.8677 32.4043 35.5462 33.9117 36.4253 35.4141C37.2991 36.9215 38.1782 38.1993 39.5301 39.2775C40.6404 40.3556 41.7559 41.4388 43.3083 42.2873C46.4132 42.5169 49.518 43.1409 52.1499 44.4486C55.2599 45.7264 57.9227 47.4634 60.1176 49.5898C62.5491 51.9457 64.5384 54.7259 65.8904 57.9704C67.2063 60.7506 67.8797 64.1897 67.8797 67.6238C67.8797 69.3258 67.6432 71.2925 67.2063 72.9945C66.7694 74.9262 66.0908 76.6582 65.4534 78.3603C64.5744 80.0624 63.4589 81.5698 62.3486 83.0772C61.2331 84.5796 59.9171 85.8574 58.3647 86.9356C57.6862 87.5945 57.0488 87.7891 56.1338 87.7891C55.4604 87.5595 54.8178 87.3648 54.1444 86.706C53.471 86.0521 53.2654 85.2036 53.471 84.5497C53.471 83.6961 53.908 83.0423 54.3449 82.618L54.5814 82.3884C55.6968 81.5349 56.5759 80.4567 57.4497 79.3786C58.3287 78.2954 59.2078 77.0176 59.8812 75.7099C60.3232 74.4321 60.7602 73.1243 61.1971 71.6169C61.4336 70.3441 61.6392 68.8367 61.6392 67.5289C61.6392 64.7437 61.1971 62.3878 60.0868 59.9969C59.2078 57.6409 57.6553 55.4796 55.8665 53.7776C53.872 51.8459 51.6462 50.5731 49.2147 49.4899C46.9889 48.6414 44.357 47.9825 41.6891 47.9825C40.1367 47.9825 38.8207 48.2121 37.7052 48.4118C36.3893 48.6414 35.0373 49.0657 33.7214 49.6846C32.611 50.1139 31.29 50.7677 30.1796 51.3867C29.0641 52.2402 28.1851 53.0937 27.0748 53.9772C26.6327 54.6311 25.7588 54.8258 25.0803 54.8258C24.2013 54.8258 23.5279 54.5962 22.8545 54.1719C22.1759 53.518 21.9754 52.6645 21.9754 52.0106C21.739 51.1621 22.2119 50.5032 22.6488 49.8493C23.9699 48.5765 25.3167 47.4934 26.6327 46.6448C28.1851 45.5617 29.7375 44.7132 31.29 44.0593C32.169 43.63 33.048 43.4004 33.9578 43.2057C34.1943 42.9761 34.3999 42.9761 34.6312 42.9761C34.1943 42.5519 33.7574 41.898 33.3153 41.4687C32.6419 40.3906 31.7629 39.3124 31.0895 38.2642C29.974 36.3326 29.1001 34.4009 28.658 32.4692C28.2211 30.9618 27.7842 29.4594 27.7842 27.952C25.1163 29.2298 22.6848 30.9618 20.459 32.6639C17.7911 35.0248 15.5961 37.3808 13.6068 40.1959C11.3758 43.4004 9.62293 47.0691 8.50745 50.7328C7.1915 54.4015 6.75456 58.2649 6.75456 62.1232C6.75456 64.9084 6.99102 67.7236 7.62844 70.5038C8.30697 73.289 9.18085 75.8746 10.2963 78.4602L10.5328 78.6898V78.4602C10.9697 79.738 11.4118 80.6214 12.0852 81.6696C12.7586 82.7478 13.4012 83.5963 14.0797 84.6795C15.8326 87.265 18.0584 89.3914 20.4899 91.5526C22.2479 92.8304 24.0368 94.1382 25.7897 95.416C25.5532 94.5625 25.3527 93.7139 25.3527 93.0601C24.9106 91.1284 24.6742 89.3914 24.6742 87.6893C24.6742 86.4115 24.9106 85.3333 25.1163 84.0256C25.1163 82.7478 25.3527 81.6696 25.7897 80.3569C26.0261 79.2787 26.4631 78.0009 26.9051 76.9228C27.3421 75.8396 28.0155 74.7615 28.658 73.7133C29.1001 73.0594 29.7735 72.4355 30.4161 72.2059C31.29 71.9763 31.9685 72.2059 32.8424 72.6352C33.5209 73.0594 33.9578 73.7133 34.1635 74.3372C34.3999 75.1858 34.3999 75.8397 33.927 76.6932C33.4849 77.3471 33.048 78.1956 32.611 79.2787C32.169 80.1273 31.9325 80.9808 31.732 81.8643C31.29 82.9424 31.29 83.796 31.0535 84.6445C30.817 85.7277 30.817 86.5762 30.817 87.6593C30.817 89.8156 31.2591 91.7473 31.696 93.8786C32.3746 95.8103 33.2485 97.5424 34.3639 99.2444C34.6004 99.474 34.8009 99.6687 35.0373 99.8983C35.2738 100.128 35.2738 100.552 35.4794 100.752C35.7159 101.176 35.9164 101.6 36.3533 101.83C36.5898 102.254 37.0318 102.684 37.4688 103.108C39.6946 105.269 42.126 106.771 44.7939 107.82C47.4618 108.903 50.3302 109.522 53.435 109.522C54.1084 109.522 54.5505 109.522 54.9874 109.522C55.4244 109.522 56.1029 109.292 56.5399 109.292C56.9768 109.292 57.4189 109.292 57.8558 109.068C58.2979 109.068 58.9713 108.838 59.4082 108.838C60.2873 108.608 60.9607 108.608 61.6392 109.068C62.3126 109.492 62.9552 110.146 63.1916 110.77C63.4281 111.618 63.1916 112.472 62.7495 113.126C62.5131 113.779 61.8757 114.204 60.9966 114.398C60.3232 114.628 59.8812 114.828 59.2386 114.828C58.5652 115.057 57.9226 115.057 57.2493 115.252C56.5759 115.252 55.9333 115.252 55.4964 115.252C54.8178 115.482 54.1753 115.482 53.5019 115.482C49.7236 115.482 45.9762 114.628 42.6349 113.32C39.088 111.813 35.7827 109.881 33.1148 107.296C32.6779 106.642 31.9993 106.023 31.5624 105.594C31.1255 104.94 30.6834 104.515 30.2464 103.891C26.0261 102.389 22.0423 100.228 18.5005 97.6721C14.9536 94.8919 11.6483 91.6525 9.18085 88.0187C8.74392 87.5944 8.30698 86.9356 8.07052 86.5113L7.83405 86.9356C7.39197 87.7891 7.15551 88.6377 6.95504 89.7208C6.71857 90.9986 6.28164 92.501 6.28164 94.238C6.04517 95.7404 5.83956 97.2478 5.83956 98.7553C5.83956 102.848 6.5181 106.707 7.83405 110.34C8.94439 114.204 10.7024 117.643 13.1339 120.882C15.1232 123.662 17.5547 126.248 20.2226 128.609C22.4484 130.311 24.8798 132.043 27.5477 133.321C27.7842 132.667 27.7842 132.043 27.7842 131.389C28.0155 130.311 28.2211 129.228 28.4576 128.18C28.8945 127.102 29.131 126.023 29.573 124.975C30.01 124.122 30.4469 123.044 31.1255 122.19C31.5624 121.341 32.2358 120.912 32.8783 120.688C33.7574 120.458 34.6312 120.688 35.3098 120.912C35.9832 121.341 36.6257 121.995 36.6257 122.844C36.8622 123.503 36.8622 124.351 36.3893 125.005C35.9523 125.859 35.5103 126.513 35.2738 127.361C34.8369 128.215 34.6004 128.868 34.3999 129.722C34.1635 130.571 33.9578 131.424 33.9578 132.308C33.7214 133.156 33.7214 134.01 33.7214 134.893C33.7214 137.479 34.1635 140.029 35.2738 142.191C36.1528 144.547 37.7052 146.708 39.4941 148.64C41.4835 150.342 43.7144 151.849 46.1459 152.732C48.3717 153.811 51.0036 154.235 53.6715 154.235C56.5399 154.235 58.9713 153.811 61.4336 152.732C63.865 151.879 66.0908 150.377 67.8489 148.64C69.8382 146.708 71.1542 144.547 72.2697 142.191C73.2155 139.835 73.8581 137.249 73.8581 134.664Z" fill="#0067f4"/>
</svg>
