<svg width="963" height="383" viewBox="0 0 963 383" fill="none" xmlns="http://www.w3.org/2000/svg">
<path d="M208.713 95.5413V288.066C208.713 294.137 209.901 299.811 212.224 305.132C214.546 310.462 217.703 315.377 221.994 319.542C226.284 323.707 231.346 327.121 237.243 329.442C242.722 331.692 248.564 332.857 254.814 332.857C267.323 332.857 279.062 327.933 287.045 319.542C290.555 316.533 293.295 312.712 295.263 308.9C297.232 305.485 298.774 301.32 299.554 297.499C306.575 294.49 313.252 290.669 319.085 286.098C325.344 281.527 330.823 275.853 335.114 269.376C339.822 262.891 343.686 255.717 346.072 247.731C348.394 240.495 350 232.571 350 224.179C350 221.17 349.583 218.099 349.229 214.685C348.812 211.676 348.458 208.614 347.678 205.605C346.907 202.94 346.136 200.275 344.938 197.619C344.167 194.954 342.979 192.695 342.199 190.383C344.167 185.468 345.718 180.491 346.907 175.567C348.095 170.246 348.458 164.925 348.458 159.251C348.458 151.266 347.26 143.28 344.938 136.106C342.616 128.526 339.105 121.29 334.397 114.866C330.106 108.786 325.045 103.121 318.794 98.1444C313.306 93.5735 307.056 89.8056 300.026 86.7436C299.255 82.5786 297.703 78.4137 295.735 74.5928C293.776 70.0219 290.673 66.254 287.162 62.8391C282.872 59.0271 277.81 55.6121 272.331 53.3532C266.734 51.156 260.892 50 254.642 50C248.382 50 242.549 51.156 237.061 53.4061C231.228 55.6651 226.103 59.08 221.812 62.9009C217.53 67.0658 214.374 71.9897 212.051 77.7166C209.901 83.7876 208.713 89.4615 208.713 95.5413ZM219.254 288.066V95.5413C219.254 90.9704 220.442 86.4524 221.994 82.2257C223.962 78.0607 226.702 74.2399 229.795 71.2308C232.897 68.2218 236.825 65.5657 241.116 63.6509C245.407 62.1508 250.115 61.3919 254.814 61.3919C259.522 61.3919 264.166 62.1508 268.103 63.6509C272.385 65.5657 276.322 68.2218 279.833 71.2308C282.935 74.2399 285.675 78.0607 287.28 82.2257C289.249 86.3995 290.02 90.9704 290.02 95.5413C290.02 98.5503 289.603 101.612 288.832 104.277C288.051 107.286 286.863 109.951 285.312 112.607C283.77 115.272 282.219 117.531 279.833 119.437C277.864 121.343 275.905 123.258 273.583 124.758C267.741 125.164 262.261 126.267 257.553 128.579C252.074 130.838 247.366 133.909 243.502 137.668C239.211 141.833 235.691 146.748 233.315 152.483C231.346 157.398 229.795 163.478 229.795 169.549C229.795 172.558 230.212 176.035 230.992 179.044C231.763 182.459 232.952 185.521 234.503 188.53C235.691 191.539 237.605 194.204 239.565 196.869C241.533 199.525 243.856 201.784 246.595 203.69C247.784 204.854 249.335 205.199 250.523 205.199C251.721 204.793 253.272 204.449 254.043 203.284C255.231 202.128 255.594 200.628 255.594 199.472C255.177 197.963 254.814 196.807 253.626 196.057V195.827C251.303 194.318 249.698 192.412 248.146 190.498C246.595 188.592 245.044 186.333 244.209 184.021C243.021 181.762 242.25 179.45 241.47 176.785C241.053 174.526 240.699 171.87 240.699 169.549C240.699 164.634 241.887 160.469 243.438 156.242C245.407 152.077 247.729 148.257 251.24 145.248C254.342 141.833 258.27 139.574 262.561 137.668C266.852 136.159 271.133 135.003 276.259 135.003C278.581 135.003 280.967 135.409 283.289 135.753C285.611 136.159 287.58 136.918 289.956 138.012C292.288 138.762 294.247 139.927 296.216 141.021C298.184 142.53 300.144 144.03 301.695 145.592C302.466 146.748 304.017 147.101 305.623 147.101C306.82 147.101 308.362 146.695 309.142 145.945C310.331 144.78 311.111 143.28 311.111 142.124C311.111 140.615 310.331 139.459 309.56 138.303C307.237 136.044 304.852 134.138 302.529 132.629C299.79 130.723 297.05 129.214 294.311 128.058C292.76 127.308 291.208 126.902 289.603 126.558C289.185 126.152 288.832 126.152 288.414 126.152C289.185 125.402 289.956 124.237 290.737 123.487C292.288 121.581 293.476 119.666 294.664 117.813C296.633 114.407 298.184 110.992 299.373 107.577C300.144 104.912 300.561 102.248 300.561 99.5916C305.269 101.842 309.56 104.912 313.488 107.922C318.196 112.087 322.069 116.251 325.58 121.228C329.517 126.902 332.61 133.388 334.932 139.865C336.901 146.342 337.672 153.172 337.672 160.001C337.672 164.925 337.255 169.902 336.121 174.817C334.932 179.732 333.381 184.303 331.422 188.883C330.224 191.133 329.453 192.695 328.319 194.548C327.131 196.463 325.997 197.963 324.809 199.878C321.706 204.449 317.778 208.208 313.488 212.028C310.748 214.279 307.237 216.599 304.135 218.858C304.552 217.349 304.915 215.849 304.915 214.685C305.686 211.27 306.104 208.208 306.104 205.199C306.104 202.94 305.686 201.034 305.686 198.713C305.269 196.463 304.915 194.548 304.135 192.236C303.718 190.321 302.947 188.071 302.176 186.156C301.395 184.25 300.207 182.344 299.073 180.491C298.302 179.326 297.105 178.232 295.98 177.826C294.782 177.42 293.24 177.826 291.689 178.576H292.106C290.555 179.326 289.784 180.491 289.367 181.585C288.95 183.094 288.95 184.25 289.784 185.75C290.972 186.915 291.744 188.415 292.106 190.321C292.877 191.83 293.295 193.339 294.075 194.901C294.483 196.807 294.846 198.307 294.846 199.816C295.263 201.722 295.263 203.231 295.263 205.137C295.263 208.958 294.846 212.373 293.712 216.132C292.524 219.547 290.972 222.617 289.421 225.626C288.65 226.032 288.233 226.376 287.879 226.782C287.879 227.188 287.462 227.938 287.099 228.283C286.682 229.041 286.328 229.791 285.557 230.197C285.14 230.947 284.359 231.697 283.588 232.456C280.069 236.268 275.37 238.933 270.662 240.786C265.954 242.692 260.892 243.795 255.413 243.795C254.224 243.795 253.444 243.795 252.673 243.795C251.893 243.795 251.122 243.389 249.933 243.389C249.153 243.389 248.382 243.389 247.611 242.983C246.831 242.983 246.06 242.578 244.872 242.578C243.674 242.172 242.132 242.172 240.935 242.983C239.746 243.734 238.612 244.898 238.195 245.993C237.778 247.501 238.195 249.002 238.975 250.158C239.746 251.322 240.935 252.072 242.069 252.416C243.257 252.822 244.391 253.167 245.162 253.167C246.359 253.572 247.493 253.572 248.682 253.925C249.87 253.925 251.004 253.925 251.775 253.925C252.972 254.331 254.097 254.331 255.295 254.331C261.962 254.331 268.575 252.822 274.834 250.51C280.667 247.846 286.564 244.431 291.272 239.86C292.043 238.704 293.24 237.601 294.011 236.851C294.782 235.695 295.563 234.945 296.334 233.842C303.781 231.177 310.812 227.365 317.062 222.847C323.321 217.932 329.154 212.196 333.862 205.772C334.279 205.022 335.05 203.866 335.83 203.116V203.866C336.602 205.375 337.019 206.875 337.373 208.781C338.153 211.04 338.57 213.705 338.924 216.767C338.924 219.432 339.341 222.097 339.341 224.753C339.341 231.989 338.153 238.819 336.248 245.242C333.916 252.072 330.76 258.143 326.895 263.879C322.958 268.794 319.085 273.365 313.968 277.53C310.031 280.539 305.75 283.61 301.042 285.869C301.042 284.704 300.624 283.61 300.624 282.454C300.207 280.539 299.844 278.633 299.427 276.78C299.019 274.874 298.239 272.959 297.468 271.106C296.687 269.606 295.916 267.691 294.728 266.191C293.948 264.682 292.76 263.932 291.626 263.526C290.083 263.12 288.532 263.526 287.344 263.932C286.146 264.682 285.375 265.847 285.013 267.347C284.595 268.503 284.595 270.012 285.43 271.168C286.21 272.668 286.981 273.833 287.398 275.333C288.169 276.842 288.587 277.998 288.95 279.498C289.367 281.007 289.721 282.507 289.721 284.069C290.138 285.578 290.138 287.078 290.138 288.639C290.138 293.21 289.367 297.728 287.398 301.549C285.847 305.714 283.108 309.535 279.951 312.95C276.44 315.959 272.503 318.615 268.221 320.177C264.284 322.092 259.64 322.842 254.932 322.842C250.233 322.842 245.579 322.092 241.234 320.177C236.943 318.677 233.015 316.012 229.913 312.95C226.82 309.535 224.08 305.714 222.112 301.549C220.442 297.208 219.254 292.637 219.254 288.066Z" fill="#2f80ed"/>
<path d="M191.296 95.5413V288.066C191.296 294.137 189.745 299.811 187.776 305.132C185.454 310.462 181.943 315.377 177.598 319.542C173.307 323.707 168.246 327.121 162.766 329.442C157.278 331.692 151.028 332.857 144.778 332.857C132.268 332.857 120.53 327.933 112.547 319.542C109.454 316.533 106.297 312.712 104.329 308.9C102.36 305.485 100.818 301.32 100.038 297.499C93.0075 294.49 86.34 290.669 80.498 286.098C74.2478 281.527 68.7687 275.853 64.4779 269.376C59.7699 262.891 55.8964 255.717 53.5197 247.731C51.1974 240.61 50 232.624 50 224.294C50 221.285 50 218.214 50.4173 214.799C50.8346 211.79 51.1974 208.728 51.9685 205.719C52.7396 203.054 53.5197 200.398 54.7081 197.733C55.4791 195.069 56.6765 192.81 57.8105 190.498C55.4791 185.583 53.8735 180.606 52.7396 175.682C51.5512 170.361 51.1974 165.04 51.1974 159.366C51.1974 151.38 52.3858 143.394 54.7081 136.22C57.0303 128.641 60.55 121.405 65.249 114.981C69.5398 108.91 75.0189 103.236 80.8609 98.2591C86.34 93.6882 92.5902 89.9291 99.6205 86.8583C100.401 82.6934 101.943 78.5284 103.911 74.7075C106.234 70.1366 108.973 66.3687 112.493 62.9626C116.775 59.1418 121.836 55.7269 127.325 53.4679C132.804 51.2089 138.754 50 144.95 50C151.21 50 157.46 51.156 162.939 53.4061C168.418 55.6651 173.489 59.08 177.771 62.9009C182.061 67.0658 185.572 71.9897 187.958 77.7166C189.745 83.7876 191.296 89.4615 191.296 95.5413ZM180.338 288.066V95.5413C180.338 90.9704 179.14 86.4524 177.598 82.2257C175.63 78.0607 173.307 74.2399 169.788 71.2308C166.694 68.2218 162.766 65.5657 158.476 63.6509C154.185 62.1508 149.894 61.3919 144.778 61.3919C140.07 61.3919 135.425 62.1508 131.488 63.6509C127.198 65.5657 123.27 68.2218 119.759 71.2308C116.657 74.2399 113.917 78.0607 112.311 82.2257C110.343 86.3995 109.572 90.9704 109.572 95.5413C109.572 98.5503 109.989 101.612 110.76 104.277C111.531 107.286 112.729 109.951 114.28 112.607C115.822 115.272 117.373 117.531 119.759 119.437C121.718 121.343 123.687 123.258 126.426 124.758C131.906 125.164 137.385 126.267 142.029 128.579C147.517 130.838 152.216 133.909 156.09 137.668C160.381 141.833 163.891 146.748 166.277 152.483C168.599 157.398 169.788 163.478 169.788 169.549C169.788 172.558 169.37 176.035 168.599 179.044C167.828 182.459 166.631 185.521 165.506 188.53C163.955 191.539 161.986 194.204 160.027 196.869C158.058 199.525 155.736 201.784 152.997 203.69C151.799 204.854 150.674 205.199 149.06 205.199C147.871 204.793 146.737 204.449 145.549 203.284C144.361 202.128 143.998 200.628 144.361 199.472C144.361 197.963 145.132 196.807 145.903 196.057L146.32 195.651C148.289 194.142 149.84 192.236 151.382 190.33C152.933 188.415 154.484 186.156 155.673 183.844C156.453 181.585 157.224 179.273 157.995 176.608C158.412 174.358 158.775 171.693 158.775 169.382C158.775 164.458 157.995 160.293 156.035 156.066C154.484 151.901 151.745 148.08 148.588 145.071C145.068 141.656 141.14 139.406 136.85 137.491C132.922 135.991 128.277 134.826 123.569 134.826C120.829 134.826 118.507 135.232 116.539 135.585C114.216 135.991 111.831 136.741 109.508 137.835C107.549 138.594 105.218 139.75 103.258 140.844C101.29 142.353 99.7384 143.862 97.779 145.424C96.9989 146.58 95.4567 146.924 94.2593 146.924C92.7081 146.924 91.5198 146.518 90.3314 145.768C89.134 144.612 88.7802 143.103 88.7802 141.947C88.3629 140.447 89.1975 139.282 89.9686 138.126C92.2999 135.876 94.6766 133.961 96.9989 132.461C99.7384 130.547 102.478 129.046 105.218 127.891C106.769 127.132 108.32 126.726 109.926 126.382C110.343 125.976 110.706 125.976 111.114 125.976C110.343 125.226 109.572 124.07 108.792 123.311C107.603 121.405 106.052 119.499 104.864 117.646C102.895 114.231 101.353 110.816 100.573 107.401C99.8019 104.736 99.0309 102.08 99.0309 99.4151C94.3228 101.674 90.0321 104.736 86.1041 107.745C81.3961 111.919 77.5226 116.084 74.012 121.061C70.075 126.726 66.9816 133.211 65.0132 139.688C62.6909 146.174 61.9198 153.004 61.9198 159.825C61.9198 164.749 62.3371 169.726 63.4619 174.641C64.6594 179.565 66.2015 184.135 68.17 188.706L68.5873 189.112V188.706C69.3583 190.965 70.1385 192.527 71.3268 194.38C72.5152 196.286 73.6491 197.786 74.8465 199.701C77.9399 204.272 81.8678 208.031 86.1586 211.852C89.261 214.111 92.4178 216.423 95.5112 218.682C95.0939 217.173 94.7401 215.673 94.7401 214.517C93.96 211.102 93.5427 208.031 93.5427 205.022C93.5427 202.763 93.96 200.857 94.3228 198.545C94.3228 196.286 94.7401 194.38 95.5112 192.059C95.9285 190.153 96.6995 187.895 97.4797 185.989C98.2507 184.074 99.4391 182.168 100.573 180.315C101.353 179.159 102.542 178.056 103.675 177.65C105.218 177.244 106.415 177.65 107.957 178.409C109.155 179.159 109.926 180.315 110.288 181.418C110.706 182.918 110.706 184.074 109.871 185.583C109.091 186.739 108.32 188.239 107.549 190.153C106.769 191.654 106.351 193.163 105.998 194.724C105.218 196.63 105.218 198.139 104.8 199.639C104.383 201.554 104.383 203.054 104.383 204.969C104.383 208.781 105.163 212.196 105.934 215.964C107.132 219.379 108.674 222.441 110.642 225.45C111.06 225.856 111.413 226.2 111.831 226.606C112.248 227.012 112.248 227.762 112.611 228.115C113.028 228.865 113.382 229.615 114.153 230.021C114.57 230.771 115.35 231.53 116.121 232.28C120.049 236.101 124.34 238.757 129.048 240.61C133.756 242.525 138.818 243.619 144.297 243.619C145.485 243.619 146.266 243.619 147.037 243.619C147.808 243.619 149.005 243.213 149.776 243.213C150.547 243.213 151.327 243.213 152.099 242.816C152.879 242.816 154.067 242.41 154.838 242.41C156.389 242.004 157.578 242.004 158.775 242.816C159.963 243.566 161.097 244.722 161.515 245.825C161.932 247.325 161.515 248.834 160.734 249.99C160.317 251.146 159.192 251.896 157.641 252.24C156.453 252.646 155.673 252.999 154.539 252.999C153.35 253.405 152.216 253.405 151.028 253.749C149.84 253.749 148.706 253.749 147.935 253.749C146.737 254.155 145.603 254.155 144.415 254.155C137.748 254.155 131.135 252.646 125.238 250.334C118.979 247.669 113.146 244.254 108.438 239.683C107.667 238.527 106.469 237.433 105.698 236.674C104.927 235.518 104.147 234.768 103.376 233.665C95.9285 231.009 88.8981 227.188 82.6479 222.67C76.3887 217.755 70.5558 212.028 66.2015 205.605C65.4304 204.854 64.6594 203.69 64.2421 202.94L63.8248 203.69C63.0447 205.199 62.6274 206.699 62.2736 208.614C61.8563 210.873 61.0852 213.529 61.0852 216.599C60.668 219.255 60.3051 221.92 60.3051 224.585C60.3051 231.821 61.5025 238.642 63.8248 245.066C65.7842 251.896 68.8866 257.976 73.1774 263.703C76.688 268.618 80.9788 273.188 85.6869 277.362C89.6148 280.371 93.9055 283.433 98.6136 285.692C99.0309 284.536 99.0309 283.433 99.0309 282.277C99.4391 280.371 99.8019 278.456 100.219 276.603C100.99 274.697 101.408 272.791 102.188 270.938C102.959 269.429 103.73 267.523 104.927 266.014C105.698 264.514 106.887 263.755 108.021 263.358C109.572 262.952 111.114 263.358 112.311 263.755C113.5 264.514 114.634 265.67 114.634 267.17C115.051 268.335 115.051 269.835 114.216 270.991C113.445 272.5 112.665 273.656 112.248 275.156C111.477 276.665 111.06 277.821 110.706 279.33C110.288 280.83 109.926 282.339 109.926 283.901C109.508 285.401 109.508 286.91 109.508 288.472C109.508 293.043 110.288 297.552 112.248 301.373C113.799 305.538 116.539 309.359 119.696 312.773C123.206 315.783 127.143 318.447 131.434 320.009C135.362 321.915 140.006 322.665 144.714 322.665C149.776 322.665 154.067 321.915 158.412 320.009C162.703 318.5 166.631 315.844 169.733 312.773C173.244 309.359 175.566 305.538 177.535 301.373C179.204 297.208 180.338 292.637 180.338 288.066Z" fill="#2f80ed"/>
<path d="M415.062 219.428V181.647H401.188V177.585V173.491H438.531V177.553V181.647H424.656V219.428H419.875H415.062ZM440.688 219.428L456.938 173.491H462.5H468.062L484.344 219.428H479.25H474.156L471.062 210.085H453.625L450.594 219.428H445.656H440.688ZM462.375 183.71L456.281 202.178H468.5L462.375 183.71ZM510.531 220.678C503.781 220.678 498.417 218.522 494.438 214.21C490.458 209.897 488.469 204.064 488.469 196.71C488.469 189.21 490.458 183.262 494.438 178.866C498.417 174.449 503.781 172.241 510.531 172.241C517.323 172.241 522.698 174.449 526.656 178.866C530.635 183.262 532.625 189.21 532.625 196.71C532.625 204.064 530.635 209.897 526.656 214.21C522.698 218.522 517.323 220.678 510.531 220.678ZM510.531 212.522C514.448 212.522 517.51 211.126 519.719 208.335C521.927 205.522 523.031 201.626 523.031 196.647C523.031 191.564 521.927 187.585 519.719 184.71C517.51 181.835 514.448 180.397 510.531 180.397C506.635 180.397 503.583 181.835 501.375 184.71C499.167 187.585 498.062 191.564 498.062 196.647C498.062 201.626 499.156 205.522 501.344 208.335C503.552 211.126 506.615 212.522 510.531 212.522ZM568.062 219.428V181.647H554.188V177.585V173.491H591.531V177.553V181.647H577.656V219.428H572.875H568.062ZM610.031 220.303C604.865 220.303 600.875 218.71 598.062 215.522C595.271 212.335 593.875 207.793 593.875 201.897C593.875 196.46 595.302 192.21 598.156 189.147C601.01 186.064 604.969 184.522 610.031 184.522C615.219 184.522 619.208 186.095 622 189.241C624.812 192.366 626.219 196.824 626.219 202.616C626.26 203.283 626.208 203.96 626.062 204.647H602.906C603.115 207.335 603.708 209.345 604.688 210.678C605.938 212.345 608.021 213.178 610.938 213.178C612.292 213.178 613.542 212.793 614.688 212.022C615.854 211.251 616.552 210.324 616.781 209.241H625.906C625.135 212.699 623.344 215.408 620.531 217.366C617.74 219.324 614.24 220.303 610.031 220.303ZM616.875 198.928C616.667 196.887 616.125 195.293 615.25 194.147C614.104 192.626 612.323 191.866 609.906 191.866C607.594 191.866 605.833 192.751 604.625 194.522C603.875 195.647 603.333 197.116 603 198.928H616.875ZM661.562 206.835C661.104 211.064 659.531 214.366 656.844 216.741C654.156 219.116 650.656 220.303 646.344 220.303C641.198 220.303 637.219 218.772 634.406 215.71C631.615 212.647 630.219 208.283 630.219 202.616C630.219 197.074 631.667 192.678 634.562 189.428C637.479 186.158 641.406 184.522 646.344 184.522C650.719 184.522 654.302 185.731 657.094 188.147C659.885 190.564 661.375 193.741 661.562 197.678H652.438C652.354 195.991 651.75 194.626 650.625 193.585C649.521 192.543 648.094 192.022 646.344 192.022C644.094 192.022 642.375 192.928 641.188 194.741C640.021 196.533 639.438 199.158 639.438 202.616C639.438 205.991 640.021 208.564 641.188 210.335C642.375 212.085 644.094 212.96 646.344 212.96C647.969 212.96 649.344 212.397 650.469 211.272C651.594 210.147 652.25 208.668 652.438 206.835H661.562ZM667.812 219.428V173.491H672.281H676.781V189.741L677.5 188.741C679.708 185.928 682.917 184.522 687.125 184.522C690.708 184.522 693.51 185.585 695.531 187.71C697.573 189.835 698.594 192.783 698.594 196.553V219.428H694.125H689.625V198.178C689.625 196.074 689.167 194.522 688.25 193.522C687.354 192.501 685.969 191.991 684.094 191.991C681.74 191.991 679.927 192.699 678.656 194.116C677.406 195.533 676.781 197.574 676.781 200.241V219.428H672.312H667.812ZM706.938 219.428V185.428H711.188H715.469V190.46C715.823 189.856 716.208 189.283 716.625 188.741C718.833 185.928 722.042 184.522 726.25 184.522C729.833 184.522 732.635 185.585 734.656 187.71C736.698 189.835 737.719 192.783 737.719 196.553V219.428H733.25H728.75V198.178C728.75 196.074 728.292 194.522 727.375 193.522C726.479 192.501 725.094 191.991 723.219 191.991C720.865 191.991 719.052 192.699 717.781 194.116C716.531 195.533 715.906 197.574 715.906 200.241V219.428H711.438H706.938ZM761.469 220.303C756.156 220.303 751.927 218.71 748.781 215.522C745.656 212.335 744.094 208.033 744.094 202.616C744.094 197.074 745.656 192.678 748.781 189.428C751.927 186.158 756.156 184.522 761.469 184.522C766.823 184.522 771.062 186.158 774.188 189.428C777.312 192.678 778.875 197.074 778.875 202.616C778.875 208.033 777.312 212.335 774.188 215.522C771.062 218.71 766.823 220.303 761.469 220.303ZM761.469 212.803C764.135 212.803 766.167 211.928 767.562 210.178C768.958 208.428 769.656 205.876 769.656 202.522C769.656 199.085 768.958 196.481 767.562 194.71C766.167 192.918 764.135 192.022 761.469 192.022C758.802 192.022 756.771 192.918 755.375 194.71C754 196.481 753.312 199.085 753.312 202.522C753.312 205.876 754 208.428 755.375 210.178C756.771 211.928 758.802 212.803 761.469 212.803ZM785.438 219.428V173.491H789.906H794.406V219.428H789.938H785.438ZM818.406 220.303C813.094 220.303 808.865 218.71 805.719 215.522C802.594 212.335 801.031 208.033 801.031 202.616C801.031 197.074 802.594 192.678 805.719 189.428C808.865 186.158 813.094 184.522 818.406 184.522C823.76 184.522 828 186.158 831.125 189.428C834.25 192.678 835.812 197.074 835.812 202.616C835.812 208.033 834.25 212.335 831.125 215.522C828 218.71 823.76 220.303 818.406 220.303ZM818.406 212.803C821.073 212.803 823.104 211.928 824.5 210.178C825.896 208.428 826.594 205.876 826.594 202.522C826.594 199.085 825.896 196.481 824.5 194.71C823.104 192.918 821.073 192.022 818.406 192.022C815.74 192.022 813.708 192.918 812.312 194.71C810.938 196.481 810.25 199.085 810.25 202.522C810.25 205.876 810.938 208.428 812.312 210.178C813.708 211.928 815.74 212.803 818.406 212.803ZM857.469 226.491C859.99 226.491 861.802 225.876 862.906 224.647C864.01 223.439 864.562 221.428 864.562 218.616V214.428L863.844 215.522C861.865 218.251 859.021 219.616 855.312 219.616C850.896 219.616 847.323 218.033 844.594 214.866C841.885 211.678 840.531 207.481 840.531 202.272C840.531 196.939 841.854 192.647 844.5 189.397C847.146 186.147 850.625 184.522 854.938 184.522C858.75 184.522 861.708 185.908 863.812 188.678C864.208 189.199 864.573 189.772 864.906 190.397V185.428H873.344V217.616C873.344 222.991 872.01 226.949 869.344 229.491C866.698 232.053 862.562 233.335 856.938 233.335C852.312 233.335 848.635 232.428 845.906 230.616C843.177 228.824 841.719 226.335 841.531 223.147H851.281C851.365 224.314 851.896 225.158 852.875 225.678C853.875 226.22 855.406 226.491 857.469 226.491ZM857.188 192.272C854.854 192.272 853.031 193.168 851.719 194.96C850.406 196.731 849.75 199.199 849.75 202.366C849.75 205.47 850.406 207.897 851.719 209.647C853.031 211.376 854.844 212.241 857.156 212.241C859.51 212.241 861.344 211.356 862.656 209.585C863.99 207.814 864.656 205.366 864.656 202.241C864.656 199.116 863.99 196.678 862.656 194.928C861.344 193.158 859.521 192.272 857.188 192.272ZM911.594 185.428L899.406 220.147C897.448 225.876 895.771 229.47 894.375 230.928C892.979 232.387 890.49 233.116 886.906 233.116L882.625 233.022V225.835C882.833 225.918 883.406 225.96 884.344 225.96C886.74 225.96 888.302 225.47 889.031 224.491C889.49 223.866 889.948 222.574 890.406 220.616L877.719 185.428H882.656H887.625L895.031 210.647L902.219 185.428H906.906H911.594Z" fill="#2f80ed"/>
</svg>
